<svg xmlns="http://www.w3.org/2000/svg" xmlns:xlink="http://www.w3.org/1999/xlink" viewBox="0 0 582.33 578.87"><defs><style>.cls-1,.cls-16{fill:none;}.cls-2{fill:#00d979;opacity:0.65;}.cls-3{fill:#25ad44;opacity:0.67;}.cls-4{fill:#ffd147;}.cls-18,.cls-5{fill:#2c3777;}.cls-6{fill:#5570f9;}.cls-7{fill:#4f6adb;}.cls-8{fill:#fff;}.cls-9{fill:#00d27e;}.cls-10{fill:#61dd28;opacity:0.52;}.cls-11{fill:#69b6f4;}.cls-12,.cls-14{opacity:0.71;}.cls-13,.cls-14{fill:#35a51e;}.cls-15{fill:#51504f;}.cls-16{stroke:#51504f;stroke-linecap:round;stroke-miterlimit:10;stroke-width:7px;}.cls-17{opacity:0.63;}.cls-18{opacity:0.39;}.cls-19{opacity:0.54;}.cls-20{clip-path:url(#clip-path);}.cls-21{fill:#ffd82a;}.cls-22{clip-path:url(#clip-path-2);}</style><clipPath id="clip-path"><rect class="cls-1" x="382.97" y="273.79" width="35.53" height="35.53"></rect></clipPath><clipPath id="clip-path-2"><rect class="cls-1" x="168.37" y="169.85" width="35.53" height="35.53"></rect></clipPath></defs><g id="Capa_2" data-name="Capa 2"><g id="Capa_1-2" data-name="Capa 1"><path class="cls-2" d="M55,292.68c0,131,106.2,237.19,237.19,237.19V55.49C161.18,55.49,55,161.68,55,292.68Z"></path><path class="cls-3" d="M292.17,55.49V529.87c131,0,237.2-106.19,237.2-237.19S423.17,55.49,292.17,55.49Z"></path><path class="cls-4" d="M19.34,234.35l40.55-38.8a3.55,3.55,0,0,0-1.46-6l-14.61-4.26a3.54,3.54,0,0,1-2.27-4.8,272.36,272.36,0,0,1,516.78,56.16,3.55,3.55,0,0,0,4.12,2.83l9.89-1.81a3.54,3.54,0,0,0,2.85-4.15,289.51,289.51,0,0,0-550.56-57.1,3.54,3.54,0,0,1-4.25,2L4.54,173.87a3.54,3.54,0,0,0-4.43,4.25l13.33,54.51A3.55,3.55,0,0,0,19.34,234.35Z"></path><path class="cls-4" d="M582.23,400.75l-13.34-54.52a3.55,3.55,0,0,0-5.9-1.72l-40.55,38.81a3.55,3.55,0,0,0,1.46,6l14.61,4.26a3.54,3.54,0,0,1,2.27,4.8A272.35,272.35,0,0,1,24,342.18a3.55,3.55,0,0,0-4.12-2.82L10,341.16a3.55,3.55,0,0,0-2.85,4.16,289.51,289.51,0,0,0,550.56,57.1,3.54,3.54,0,0,1,4.25-2L577.79,405A3.55,3.55,0,0,0,582.23,400.75Z"></path><path class="cls-5" d="M57.2,448.55H522.71a0,0,0,0,1,0,0v11.85a8,8,0,0,1-8,8H65.19a8,8,0,0,1-8-8V448.55A0,0,0,0,1,57.2,448.55Z"></path><path class="cls-6" d="M136,128.14H450.41A19.84,19.84,0,0,1,470.25,148V340.8a0,0,0,0,1,0,0h-354a0,0,0,0,1,0,0V148A19.84,19.84,0,0,1,136,128.14Z"></path><polygon class="cls-7" points="522.71 448.55 57.2 448.55 116.21 340.8 470.25 340.8 522.71 448.55"></polygon><rect class="cls-8" x="137.2" y="155.69" width="312.06" height="173.26" rx="5.64"></rect><path class="cls-9" d="M258.17,269.41a8.87,8.87,0,0,1,.59,4l3.91-1.42s-1.33-1.86-2.91-4.34l0,0S259.17,268.34,258.17,269.41Z"></path><path class="cls-10" d="M356.69,207.17a69.5,69.5,0,0,0-4.46-6.38c-1.17,4.12-3,11.39-1.74,13.55C351.46,216.05,354.34,211.51,356.69,207.17Z"></path><path class="cls-11" d="M349.27,291.79a71.27,71.27,0,0,0,13.66-22.1,69.43,69.43,0,0,0-2-55.15l0,0c-.24-.5-.47-1-.72-1.49-12.1-24.33-37.86-41.12-67.69-41.12v.56a76.1,76.1,0,0,0-51.82,20.83,71.73,71.73,0,0,0-14,18.49,70.54,70.54,0,0,0-3.37,7.38c-11.82,30.45-.89,63.76,24.59,82.51a74,74,0,0,0,8.67,5.5A75.19,75.19,0,0,0,267,311.8a76.39,76.39,0,0,0,25.53,4.59v.45a76.07,76.07,0,0,0,55.86-24.07l.89-1Z"></path><g class="cls-12"><path class="cls-13" d="M259.65,267.69c-2.53-4-5.72-9.5-5.18-11.55.87-3.33-5.24.53-5.34-3.55s-.41-5.41,3.31-5.28,11.08,2.79,18.25-2.71,17.61-2.93,18-5.22,5.93-12-1.91-22.14-5.54,7.7-10.92,8.59-10-4.44-8.27-11.09,5.42-5.33,9.1-7.23,2.94-8.66,1.38-13.27-9.19-9.81-18.38-6.66c-6.59,2.26-13.12,5.39-18.87,5.56-5.54,5.29-10.88,11.47-14.55,18.46,5-3.74,10.52-7.21,12.37-6.54,3.68,1.33-5.65,21-2.25,29.56s8,20.32,15.62,26.71a19.06,19.06,0,0,1,6,8.08l1.55-1.69Z"></path><path class="cls-13" d="M258.06,269.41c-1,1.06-2.41,2.56-4.15,4.35-3.49,3.59,6.21,9.94,2.9,15.22-1.8,2.86-13,2.1-16.35,6.4A80,80,0,0,0,256.25,307c2.47-1.34,5.14-4.36,9-4,19.77,1.82,28-10.52,24.35-13s-19.53-22.06-23.2-23.39a7.38,7.38,0,0,0-6.72,1.17"></path></g><path class="cls-14" d="M362.48,238.75c-1.15-2.44-1.75-9.54-4.74-9.41s-10.29,6-11.53,9.19,4.78,11.64,4.37,12.7-13.29-3.79-15,1.67-2.25,3.64-5.93,5.55-2.89,7.45-2.89,7.45-15.52,7.4-14.19,14.77c1,5.74,18.88,8.29,26.71,9.14a1.52,1.52,0,0,1,.86,2.69c-5.39,4.48-17.69,14.59-28.84,21.72,23-5.54,42.85-21.66,51.79-44.7a69.54,69.54,0,0,0,4.66-29.1C365,240.05,362.84,239.51,362.48,238.75Z"></path><path class="cls-14" d="M334.75,224.88c.44-2.08-1.84-3.22-3.81-3.81a2.55,2.55,0,0,0-3.25,2.32c-.1,1.71.29,3.61,2.23,4.2C333.3,228.61,334,228.45,334.75,224.88Z"></path><path class="cls-14" d="M338.43,195.44l1.82-6.64a75.18,75.18,0,0,0-21.37-11.94l-1.59-.55c-2.16,1.14-4.43,2.31-6.57,3.35,0,0-15.53-3.5-18.64-2-3.87,1.84-11.35.44-10.16,4.92s3.92,4.87,10.84,1.6c6.22-2.93,11.86-5.1,15.08-3.14a25.89,25.89,0,0,1-5.72,2.08c-4.87.67-2.52,4.35,2.62,6.21s5.33,6.79,4.33,14.12-1.85,2.17-3.59,9.23-2,10.2,2.62,12.29,7.53-8.61,7.53-8.61,10.25,1.68,15.49-2.09S336.4,202.8,338.43,195.44Z"></path><path class="cls-14" d="M285.41,192s-3.48,1-3.05,4.16,4.9,2,5.34,7.86.89,9.58,4.36,9.83,2.64-4.11,2.59-11S289.12,191.75,285.41,192Z"></path><ellipse class="cls-15" cx="272.55" cy="221.43" rx="5.35" ry="5.16"></ellipse><ellipse class="cls-15" cx="313.91" cy="221.43" rx="5.35" ry="5.16"></ellipse><path class="cls-16" d="M319.76,246.85c0,14.15-11.88,25.62-26.53,25.62S266.7,261,266.7,246.85"></path><g class="cls-17"><polygon class="cls-5" points="209.7 377.79 232.38 377.79 234.54 364.12 212.96 364.12 209.7 377.79"></polygon><polygon class="cls-5" points="158.94 377.79 177.51 377.79 182.13 364.12 165.26 364.12 158.94 377.79"></polygon><polygon class="cls-5" points="237.21 377.79 260.23 377.79 261.58 364.12 239.37 364.12 237.21 377.79"></polygon><polygon class="cls-5" points="265.01 377.79 287.57 377.79 287.57 364.12 266.37 364.12 265.01 377.79"></polygon><polygon class="cls-5" points="292.34 377.79 314.73 377.79 313.38 364.12 292.34 364.12 292.34 377.79"></polygon><polygon class="cls-5" points="319.52 377.79 342.87 377.79 340.71 364.12 318.17 364.12 319.52 377.79"></polygon><polygon class="cls-5" points="200 397.92 175.75 397.92 170.89 412.32 196.56 412.32 200 397.92"></polygon><polygon class="cls-5" points="229.2 397.92 204.89 397.92 201.46 412.32 226.93 412.32 229.2 397.92"></polygon><polygon class="cls-5" points="347.7 377.79 370.48 377.79 367.21 364.12 345.54 364.12 347.7 377.79"></polygon><polygon class="cls-5" points="258.24 397.92 234.03 397.92 231.75 412.32 256.81 412.32 258.24 397.92"></polygon><polygon class="cls-5" points="170.72 397.92 149.63 397.92 142.97 412.32 165.86 412.32 170.72 397.92"></polygon><polygon class="cls-5" points="145.88 394.68 152.46 380.45 122.03 380.45 113.43 394.68 145.88 394.68"></polygon><polygon class="cls-5" points="137.72 412.32 144.38 397.92 111.48 397.92 102.78 412.32 137.72 412.32"></polygon><polygon class="cls-5" points="123.64 377.79 153.69 377.79 160.01 364.12 131.89 364.12 123.64 377.79"></polygon><polygon class="cls-5" points="287.57 397.92 263.02 397.92 261.6 412.32 287.57 412.32 287.57 397.92"></polygon><polygon class="cls-5" points="259.96 380.45 236.79 380.45 234.54 394.68 258.56 394.68 259.96 380.45"></polygon><polygon class="cls-5" points="315 380.45 292.34 380.45 292.34 394.68 316.4 394.68 315 380.45"></polygon><polygon class="cls-5" points="231.96 380.45 209.06 380.45 205.67 394.68 229.72 394.68 231.96 380.45"></polygon><polygon class="cls-5" points="287.57 380.45 264.75 380.45 263.34 394.68 287.57 394.68 287.57 380.45"></polygon><polygon class="cls-5" points="151.13 394.68 171.81 394.68 176.61 380.45 157.71 380.45 151.13 394.68"></polygon><polygon class="cls-5" points="426.73 377.79 460.25 377.79 452.92 364.12 420.41 364.12 426.73 377.79"></polygon><polygon class="cls-5" points="204.16 380.45 181.64 380.45 176.84 394.68 200.77 394.68 204.16 380.45"></polygon><polygon class="cls-5" points="402.77 377.79 421.48 377.79 415.16 364.12 398.15 364.12 402.77 377.79"></polygon><polygon class="cls-5" points="343.29 380.45 319.79 380.45 321.19 394.68 345.54 394.68 343.29 380.45"></polygon><polygon class="cls-5" points="375.37 377.79 397.74 377.79 393.12 364.12 372.11 364.12 375.37 377.79"></polygon><polygon class="cls-5" points="422.71 380.45 403.67 380.45 408.47 394.68 429.29 394.68 422.71 380.45"></polygon><polygon class="cls-5" points="461.68 380.45 427.96 380.45 434.54 394.68 469.32 394.68 461.68 380.45"></polygon><polygon class="cls-5" points="398.64 380.45 376.01 380.45 379.4 394.68 403.44 394.68 398.64 380.45"></polygon><polygon class="cls-5" points="371.11 380.45 348.12 380.45 350.37 394.68 374.5 394.68 371.11 380.45"></polygon><polygon class="cls-5" points="182.54 377.79 204.8 377.79 208.06 364.12 187.16 364.12 182.54 377.79"></polygon><polygon class="cls-5" points="231.1 416.45 227.84 437.11 254.36 437.11 256.4 416.45 231.1 416.45"></polygon><polygon class="cls-5" points="141.06 416.45 131.51 437.11 157.49 437.11 164.46 416.45 141.06 416.45"></polygon><polygon class="cls-5" points="316.72 397.92 292.34 397.92 292.34 412.32 318.15 412.32 316.72 397.92"></polygon><polygon class="cls-5" points="169.49 416.45 162.52 437.11 190.65 437.11 195.57 416.45 169.49 416.45"></polygon><polygon class="cls-5" points="182.78 362.18 186.13 352.25 170.75 352.25 166.16 362.18 182.78 362.18"></polygon><polygon class="cls-5" points="160.91 362.18 165.5 352.25 139.06 352.25 133.06 362.18 160.91 362.18"></polygon><polygon class="cls-5" points="100.28 416.45 87.81 437.11 126.25 437.11 135.81 416.45 100.28 416.45"></polygon><polygon class="cls-5" points="353.81 416.45 357.07 437.11 384.63 437.11 379.7 416.45 353.81 416.45"></polygon><polygon class="cls-5" points="415.82 416.45 422.79 437.11 448.91 437.11 439.36 416.45 415.82 416.45"></polygon><polygon class="cls-5" points="384.6 416.45 389.53 437.11 417.76 437.11 410.79 416.45 384.6 416.45"></polygon><polygon class="cls-5" points="481.01 416.45 444.61 416.45 454.16 437.11 492.1 437.11 481.01 416.45"></polygon><polygon class="cls-5" points="292.34 416.45 292.34 437.11 320.6 437.11 318.56 416.45 292.34 416.45"></polygon><polygon class="cls-5" points="261.19 416.45 259.15 437.11 287.57 437.11 287.57 416.45 261.19 416.45"></polygon><polygon class="cls-5" points="323.35 416.45 325.39 437.11 352.25 437.11 348.98 416.45 323.35 416.45"></polygon><polygon class="cls-5" points="208.52 362.18 210.89 352.25 191.16 352.25 187.81 362.18 208.52 362.18"></polygon><polygon class="cls-5" points="200.47 416.45 195.54 437.11 223.01 437.11 226.28 416.45 200.47 416.45"></polygon><polygon class="cls-5" points="471.06 397.92 436.04 397.92 442.7 412.32 478.79 412.32 471.06 397.92"></polygon><polygon class="cls-5" points="414.26 362.18 409.67 352.25 394.15 352.25 397.5 362.18 414.26 362.18"></polygon><polygon class="cls-5" points="430.79 397.92 409.56 397.92 414.42 412.32 437.45 412.32 430.79 397.92"></polygon><polygon class="cls-5" points="451.87 362.18 446.54 352.25 414.92 352.25 419.51 362.18 451.87 362.18"></polygon><polygon class="cls-5" points="346.05 397.92 321.51 397.92 322.94 412.32 348.33 412.32 346.05 397.92"></polygon><polygon class="cls-5" points="404.53 397.92 380.18 397.92 383.61 412.32 409.39 412.32 404.53 397.92"></polygon><polygon class="cls-5" points="375.28 397.92 350.88 397.92 353.15 412.32 378.71 412.32 375.28 397.92"></polygon><polygon class="cls-5" points="287.57 362.18 287.57 352.25 267.54 352.25 266.56 362.18 287.57 362.18"></polygon><polygon class="cls-5" points="234.85 362.18 236.42 352.25 215.79 352.25 213.42 362.18 234.85 362.18"></polygon><polygon class="cls-5" points="313.19 362.18 312.21 352.25 292.34 352.25 292.34 362.18 313.19 362.18"></polygon><polygon class="cls-5" points="392.47 362.18 389.12 352.25 369.28 352.25 371.65 362.18 392.47 362.18"></polygon><polygon class="cls-5" points="261.77 362.18 262.75 352.25 241.24 352.25 239.67 362.18 261.77 362.18"></polygon><polygon class="cls-5" points="366.75 362.18 364.38 352.25 343.66 352.25 345.23 362.18 366.75 362.18"></polygon><polygon class="cls-5" points="340.41 362.18 338.84 352.25 317 352.25 317.98 362.18 340.41 362.18"></polygon></g><circle class="cls-18" cx="293.23" cy="141.43" r="6.49"></circle><g class="cls-19"><g class="cls-20"><polygon class="cls-21" points="403.67 273.8 408.05 286.32 418.49 294.5 405.97 298.88 397.79 309.32 393.41 296.8 382.96 288.62 395.49 284.24 403.67 273.8"></polygon></g></g><g class="cls-19"><g class="cls-22"><polygon class="cls-21" points="189.07 169.85 193.45 182.37 203.89 190.56 191.37 194.93 183.19 205.38 178.81 192.85 168.37 184.67 180.89 180.29 189.07 169.85"></polygon></g></g></g></g></svg>