<svg xmlns="http://www.w3.org/2000/svg" viewBox="0 0 535.09 535.08"><defs><style>.cls-1{fill:#a770b2;}.cls-2{fill:#ffee6e;}.cls-3{fill:#ffd147;}.cls-4{fill:#691577;}.cls-5{fill:#46c1e6;}.cls-6{fill:#b1eeee;}</style></defs><g id="Capa_2" data-name="Capa 2"><g id="Capa_1-2" data-name="Capa 1"><path class="cls-1" d="M189.42,290.12l59.5-155a133.52,133.52,0,0,0-43.19,250.36l43.12-95Z"></path><path class="cls-1" d="M267.53,334.67l-46.08,57.77a132.85,132.85,0,0,0,46.09,8.35V334.66Z"></path><path class="cls-2" d="M221.45,392.44l46.08-57.77v-201c-1.29,0-2.58,0-3.86.07a131.6,131.6,0,0,0-14.75,1.3l-59.5,155.05,59.43.31-43.12,95q4.78,2.52,9.84,4.67Q218.5,391.35,221.45,392.44Z"></path><polygon class="cls-3" points="267.54 133.7 267.53 133.7 267.53 334.67 267.54 334.66 267.54 133.7"></polygon><polygon class="cls-1" points="267.54 334.66 267.54 400.79 267.54 400.79 267.54 334.65 267.54 334.66"></polygon><path class="cls-4" d="M339.89,244l-72.35,90.7v66.13c1.29,0,2.58,0,3.86,0a133.54,133.54,0,0,0,119.31-81.22c26.18-61,2.81-130.61-51.64-165.14l-64.16,89.23Z"></path><polygon class="cls-3" points="267.54 334.66 267.54 334.65 267.54 133.7 267.54 133.7 267.54 334.66"></polygon><path class="cls-3" d="M339.89,244l-65-.34,64.16-89.23a135.26,135.26,0,0,0-17.94-9.58l-1-.43a133,133,0,0,0-52.59-10.68v201Z"></path><polygon class="cls-5" points="267.54 133.21 267.54 118.99 267.54 118.99 267.54 133.21 267.54 133.21"></polygon><polygon class="cls-5" points="267.54 400.79 267.54 412.11 267.54 412.11 267.54 400.79 267.54 400.79"></polygon><polygon class="cls-5" points="267.54 133.7 267.54 133.21 267.54 133.21 267.54 133.7 267.54 133.7"></polygon><path class="cls-5" d="M521.12,334.71,496,324a232.07,232.07,0,0,0,1.58-106.9L522.9,207A19.21,19.21,0,0,0,533.74,182a1.55,1.55,0,0,0-.08-.23l-14.39-35.24a19.5,19.5,0,0,0-25.16-10.9l-25.35,10.09a235.8,235.8,0,0,0-74.21-76.39l10.76-25a19.36,19.36,0,0,0-10.12-25.44l-.1,0-34.77-15A19.35,19.35,0,0,0,334.88,14l0,.09-10.9,25a233.79,233.79,0,0,0-56.4-7V119h0V133.7a133,133,0,0,1,52.59,10.68l1,.43a135.26,135.26,0,0,1,17.94,9.58c54.45,34.53,77.82,104.18,51.64,165.14A133.54,133.54,0,0,1,271.4,400.75c-1.28,0-2.57,0-3.86,0v11.32h0V503c2.28,0,4.55,0,6.82-.08A234.76,234.76,0,0,0,318,497.56l10.08,25.21a19.22,19.22,0,0,0,24.86,11l.3-.11,35.25-14.38A19.63,19.63,0,0,0,399.37,494l-10.08-25.22a235.1,235.1,0,0,0,76.39-74.34l25,10.89a19.5,19.5,0,0,0,25.48-10.22l15-34.76A19.63,19.63,0,0,0,521.12,334.71Z"></path><path class="cls-6" d="M260.72,32.18A234.45,234.45,0,0,0,217,37.49l-9.95-25.22A19.5,19.5,0,0,0,181.8,1.38L146.55,15.76a19.5,19.5,0,0,0-10.9,25.16l10.09,25.36a233.32,233.32,0,0,0-76.26,74.34l-25-10.9A19.63,19.63,0,0,0,18.83,140l-15,34.76A19.63,19.63,0,0,0,14,200.33l25,10.76A233.89,233.89,0,0,0,37.49,318L12.27,328.08A19.36,19.36,0,0,0,1.35,353.19l0,.05,14.38,35.25A19.62,19.62,0,0,0,41,399.38L66.27,389.3a235.2,235.2,0,0,0,74.34,76.39l-10.76,25a19.37,19.37,0,0,0,10.05,25.48h0l34.76,15A19.5,19.5,0,0,0,200.32,521h0l10.77-25a233.77,233.77,0,0,0,56.45,7V400.79a132.85,132.85,0,0,1-46.09-8.35q-3-1.1-5.88-2.34-5.06-2.14-9.84-4.67a133.52,133.52,0,0,1,43.19-250.36,131.6,131.6,0,0,1,14.75-1.3c1.28-.05,2.57-.06,3.86-.07v-.49h0V32.1C265.27,32.1,263,32.12,260.72,32.18Z"></path><polygon class="cls-6" points="267.54 133.7 267.54 133.21 267.53 133.21 267.53 133.7 267.54 133.7"></polygon></g></g></svg>