<svg xmlns="http://www.w3.org/2000/svg" xmlns:xlink="http://www.w3.org/1999/xlink" viewBox="0 0 553.01 497.82"><defs><style>.cls-1,.cls-2{fill:none;}.cls-2{stroke:#19103e;stroke-width:0.72px;}.cls-3{opacity:0.79;}.cls-4{fill:#ffee6e;}.cls-5{fill:#ffd147;}.cls-6{opacity:0.53;}.cls-7{fill:#ff6b4f;}.cls-8{fill:#bb7344;}.cls-9{fill:#7d4729;opacity:0.22;}.cls-10{opacity:0.74;}.cls-11{fill:#633112;}.cls-12{fill:#ea4b44;}.cls-13{fill:#380c27;}.cls-14{fill:#00d979;}.cls-15{fill:#303030;opacity:0.21;}.cls-16{fill:#ffa065;}.cls-17{fill:#e67b3b;opacity:0.32;}.cls-18{fill:#2b0a8c;}.cls-19{fill:url(#_10_lpp_10_);}</style><pattern id="_10_lpp_10_" data-name="10 lpp 10%" width="72" height="72" patternTransform="translate(-797.75 1400.61) rotate(-23) scale(2.61)" patternUnits="userSpaceOnUse" viewBox="0 0 72 72"><rect class="cls-1" width="72" height="72"></rect><line class="cls-2" x1="71.75" y1="67.14" x2="144.25" y2="67.14"></line><line class="cls-2" x1="71.75" y1="71.68" x2="144.25" y2="71.68"></line><line class="cls-2" x1="71.75" y1="62.6" x2="144.25" y2="62.6"></line><line class="cls-2" x1="71.75" y1="53.52" x2="144.25" y2="53.52"></line><line class="cls-2" x1="71.75" y1="44.45" x2="144.25" y2="44.45"></line><line class="cls-2" x1="71.75" y1="48.99" x2="144.25" y2="48.99"></line><line class="cls-2" x1="71.75" y1="30.83" x2="144.25" y2="30.83"></line><line class="cls-2" x1="71.75" y1="35.37" x2="144.25" y2="35.37"></line><line class="cls-2" x1="71.75" y1="26.29" x2="144.25" y2="26.29"></line><line class="cls-2" x1="71.75" y1="17.22" x2="144.25" y2="17.22"></line><line class="cls-2" x1="71.75" y1="8.14" x2="144.25" y2="8.14"></line><line class="cls-2" x1="71.75" y1="58.06" x2="144.25" y2="58.06"></line><line class="cls-2" x1="71.75" y1="39.91" x2="144.25" y2="39.91"></line><line class="cls-2" x1="71.75" y1="21.75" x2="144.25" y2="21.75"></line><line class="cls-2" x1="71.75" y1="12.68" x2="144.25" y2="12.68"></line><line class="cls-2" x1="71.75" y1="3.6" x2="144.25" y2="3.6"></line><line class="cls-2" x1="-0.25" y1="67.14" x2="72.25" y2="67.14"></line><line class="cls-2" x1="-0.25" y1="71.68" x2="72.25" y2="71.68"></line><line class="cls-2" x1="-0.25" y1="62.6" x2="72.25" y2="62.6"></line><line class="cls-2" x1="-0.25" y1="53.52" x2="72.25" y2="53.52"></line><line class="cls-2" x1="-0.25" y1="44.45" x2="72.25" y2="44.45"></line><line class="cls-2" x1="-0.25" y1="48.99" x2="72.25" y2="48.99"></line><line class="cls-2" x1="-0.25" y1="30.83" x2="72.25" y2="30.83"></line><line class="cls-2" x1="-0.25" y1="35.37" x2="72.25" y2="35.37"></line><line class="cls-2" x1="-0.25" y1="26.29" x2="72.25" y2="26.29"></line><line class="cls-2" x1="-0.25" y1="17.22" x2="72.25" y2="17.22"></line><line class="cls-2" x1="-0.25" y1="8.14" x2="72.25" y2="8.14"></line><line class="cls-2" x1="-0.25" y1="58.06" x2="72.25" y2="58.06"></line><line class="cls-2" x1="-0.25" y1="39.91" x2="72.25" y2="39.91"></line><line class="cls-2" x1="-0.25" y1="21.75" x2="72.25" y2="21.75"></line><line class="cls-2" x1="-0.25" y1="12.68" x2="72.25" y2="12.68"></line><line class="cls-2" x1="-0.25" y1="3.6" x2="72.25" y2="3.6"></line><line class="cls-2" x1="-72.25" y1="67.14" x2="0.25" y2="67.14"></line><line class="cls-2" x1="-72.25" y1="71.68" x2="0.25" y2="71.68"></line><line class="cls-2" x1="-72.25" y1="62.6" x2="0.25" y2="62.6"></line><line class="cls-2" x1="-72.25" y1="53.52" x2="0.25" y2="53.52"></line><line class="cls-2" x1="-72.25" y1="44.45" x2="0.25" y2="44.45"></line><line class="cls-2" x1="-72.25" y1="48.99" x2="0.25" y2="48.99"></line><line class="cls-2" x1="-72.25" y1="30.83" x2="0.25" y2="30.83"></line><line class="cls-2" x1="-72.25" y1="35.37" x2="0.25" y2="35.37"></line><line class="cls-2" x1="-72.25" y1="26.29" x2="0.25" y2="26.29"></line><line class="cls-2" x1="-72.25" y1="17.22" x2="0.25" y2="17.22"></line><line class="cls-2" x1="-72.25" y1="8.14" x2="0.25" y2="8.14"></line><line class="cls-2" x1="-72.25" y1="58.06" x2="0.25" y2="58.06"></line><line class="cls-2" x1="-72.25" y1="39.91" x2="0.25" y2="39.91"></line><line class="cls-2" x1="-72.25" y1="21.75" x2="0.25" y2="21.75"></line><line class="cls-2" x1="-72.25" y1="12.68" x2="0.25" y2="12.68"></line><line class="cls-2" x1="-72.25" y1="3.6" x2="0.25" y2="3.6"></line><line class="cls-2" x1="71.75" y1="-0.32" x2="144.25" y2="-0.32"></line><line class="cls-2" x1="-0.25" y1="-0.32" x2="72.25" y2="-0.32"></line><line class="cls-2" x1="-72.25" y1="-0.32" x2="0.25" y2="-0.32"></line></pattern></defs><g id="Capa_2" data-name="Capa 2"><g id="Capa_1-2" data-name="Capa 1"><g class="cls-3"><path class="cls-4" d="M29,248.91C29,386.38,140.48,497.82,278,497.82V0C140.48,0,29,111.44,29,248.91Z"></path><path class="cls-5" d="M278,0V497.82c137.46,0,248.9-111.44,248.9-248.91S415.41,0,278,0Z"></path></g><g class="cls-6"><rect class="cls-7" x="271.37" y="96.73" width="10.03" height="50.67" rx="5.01"></rect><path class="cls-7" d="M320,162.07h0c-2.63-.62-4.09-2.72-3.25-4.68l17.67-41.18c.85-2,3.67-3,6.31-2.41h0c2.63.62,4.09,2.72,3.25,4.68l-17.67,41.17C325.47,161.61,322.65,162.7,320,162.07Z"></path><path class="cls-7" d="M232.76,162.07h0c2.64-.62,4.09-2.72,3.25-4.68l-17.67-41.18c-.84-2-3.66-3-6.3-2.41h0c-2.64.62-4.1,2.72-3.26,4.68l17.68,41.17C227.3,161.61,230.12,162.7,232.76,162.07Z"></path></g><path class="cls-8" d="M165.39,305.93c-10.23-26.15-50-37.05-64.57-40.23l-.14.74c-4.39,8.28-6.28,25.84,8.28,31.62,11.28,4.48,22.64,10.24,27.29,17.56,8.26,13,4,16.9,26.9,36.75,8.23,7.15,40.44,13,59.49,23.16,22.07,11.74,40.35,25.27,52.44,33.59-3.28-7.72-6.51-14.59-8.94-18.11C258.44,379.87,178,338.11,165.39,305.93Z"></path><path class="cls-8" d="M386.47,342.07s-2.47-16.32-18.65-29.38S329.55,273,314.29,258.51,253.05,229.75,241.13,228c-36-3.89-32.45,38.69-48.42,39.32-15.15.59-16.33-10.87-15.25-25.35.74-9.85,5.74-19.79,13.1-28.06-4.6.36-9.26.74-13.39,1.11-15.25,1.37-19.47,6.5-26.34,5.36-2.85-.47-13.38-8.36-16.64-9.36-4-1.22-7.93-.53-12,2.11-5.4,3.5-13.36,15.6-15.4,21.88l-6,30.73c14.57,3.18,54.34,14.08,64.57,40.23C178,338.11,258.44,379.87,266.14,391c2.43,3.52,5.66,10.39,8.94,18.11,6.48,4.46,11.18,7.43,13.73,7.81,10.33,1.54,25.08,6.71,30.19,1.05,5.41-6,2.46-15.35,2.46-15.35s14.74,10.55,21.71,3.29,1.59-20.18,1.59-20.18,14.16,11,23.48,1c5.94-6.39,2.33-15-.38-19.64,3.32,4,10.35,9,20.28-2.59C392.77,359.1,387.1,343.56,386.47,342.07Z"></path><path class="cls-9" d="M165.39,305.93c-10.23-26.15-50-37.05-64.57-40.23l-.14.74c-4.39,8.28-6.28,25.84,8.28,31.62,11.28,4.48,22.64,10.24,27.29,17.56,8.26,13,4,16.9,26.9,36.75,8.23,7.15,40.44,13,59.49,23.16,22.07,11.74,40.35,25.27,52.44,33.59-3.28-7.72-6.51-14.59-8.94-18.11C258.44,379.87,178,338.11,165.39,305.93Z"></path><g class="cls-10"><path class="cls-11" d="M303.59,309.75c6.29,3.69,12.42,7.66,18.45,11.78s11.9,8.45,17.64,13A178,178,0,0,1,356,349.1a78.62,78.62,0,0,1,7.08,8.38,27,27,0,0,1,4.72,9.83,28,28,0,0,0-5.11-9.54,79.77,79.77,0,0,0-7.24-8.13,193.15,193.15,0,0,0-16.41-14.36c-5.67-4.57-11.54-8.88-17.46-13.13q-4.44-3.18-9-6.27C309.65,313.8,306.62,311.77,303.59,309.75Z"></path></g><g class="cls-10"><path class="cls-11" d="M279.93,327.83c6,4,11.9,8.19,17.7,12.52s11.43,8.85,17,13.47,10.9,9.52,16,14.67c1.24,1.32,2.55,2.57,3.74,3.94l3.58,4.07,3.31,4.31c1,1.5,1.95,3.05,2.91,4.58-1-1.47-2.06-3-3.12-4.42l-3.47-4.15-3.67-4c-1.22-1.33-2.56-2.54-3.83-3.82-5.17-5-10.52-9.86-16.08-14.46S302.85,345.4,297.16,341q-4.26-3.33-8.58-6.6C285.72,332.15,282.83,330,279.93,327.83Z"></path></g><g class="cls-10"><path class="cls-11" d="M256.34,347.88l8.08,7.15,8.11,7.12c5.42,4.72,10.84,9.44,16.34,14.06s11,9.23,16.61,13.76c2.81,2.23,5.6,4.5,8.46,6.67s5.72,4.35,8.58,6.54c-6-4-11.81-8.23-17.52-12.61s-11.25-9-16.77-13.6-10.9-9.4-16.21-14.25S261.44,353,256.34,347.88Z"></path></g><g class="cls-10"><path class="cls-11" d="M136.71,289.93a22,22,0,0,0-1.1,4.77,34.46,34.46,0,0,0-.34,4.87,50.79,50.79,0,0,0,1,9.68l.48,2.4.63,2.36.3,1.18.38,1.16.74,2.34c.53,1.55,1.14,3.06,1.71,4.6s1.3,3,1.9,4.54c-.81-1.43-1.56-2.89-2.35-4.34s-1.36-3-2-4.54a53.81,53.81,0,0,1-2.8-9.51,42,42,0,0,1-.77-9.89A24.82,24.82,0,0,1,136.71,289.93Z"></path></g><path class="cls-7" d="M52.94,142.49,30.76,196.76C49.51,231.63,76,276.17,104.64,310l51.28-125.45Z"></path><path class="cls-7" d="M0,272,103,314.1l1.66-4.07C76,276.17,49.51,231.63,30.76,196.76Z"></path><path class="cls-12" d="M0,272,103,314.1l1.66-4.07C76,276.17,49.51,231.63,30.76,196.76Z"></path><circle class="cls-13" cx="101.96" cy="219.83" r="9.56"></circle><path class="cls-14" d="M201.4,279.71q.58-1,1.17-2.1Q202,278.69,201.4,279.71Z"></path><path class="cls-15" d="M205,273c-.72,1.39-1.41,2.74-2.1,4,.4-.76.81-1.53,1.22-2.32Z"></path><path class="cls-15" d="M180.84,244.94Z"></path><path class="cls-15" d="M201.28,279.91l.12-.2c-.38.64-.75,1.26-1.14,1.86C200.61,281,201,280.48,201.28,279.91Z"></path><g id="Hand_1" data-name="Hand 1"><path class="cls-16" d="M189,364.93c7,0,13.72-3,18.48-5.9,0-.49,0-1-.05-1.47-.73-12.07-8.56-21.31-17.48-20.63-8.67.66-14.68,8.37-15.61,19.88C177.35,360.82,182.13,364.93,189,364.93Z"></path><path class="cls-16" d="M189,364.93c-6.82,0-11.6-4.11-14.66-8.12,0,.35-.06.68-.08,1-.53,10,9.42,22.33,18.35,22.8,6.9.37,11.22-4,13.33-10.27a28.26,28.26,0,0,1-1-4.29,28.26,28.26,0,0,0,1,4.29A33.16,33.16,0,0,0,207.43,359C202.67,361.89,196,364.93,189,364.93Z"></path><path class="cls-17" d="M189,364.93c-6.82,0-11.6-4.11-14.66-8.12,0,.35-.06.68-.08,1-.53,10,9.42,22.33,18.35,22.8,6.9.37,11.22-4,13.33-10.27A33.16,33.16,0,0,0,207.43,359C202.67,361.89,196,364.93,189,364.93Z"></path><path class="cls-16" d="M220,389c-7.31-1.12-11.7-11-13.72-17.42-3.6,11.05.33,22.64,9,26.2,8.49,3.46,18.43-1.92,23-12.1C233.4,387.66,226.25,389.9,220,389Z"></path><path class="cls-17" d="M220,389c-7.31-1.12-11.7-11-13.72-17.42-3.6,11.05.33,22.64,9,26.2,8.49,3.46,18.43-1.92,23-12.1C233.4,387.66,226.25,389.9,220,389Z"></path><path class="cls-16" d="M230.22,356.77c-9-3.65-19.57,2.55-23.69,13.86-.11.3-.19.6-.29.9,2,6.4,6.41,16.3,13.72,17.42,6.29.95,13.44-1.29,18.3-3.32.26-.57.5-1.16.73-1.76C243.11,372.56,239.18,360.43,230.22,356.77Z"></path><path class="cls-16" d="M256.52,374.47c-6.61-1.2-13.19,3.24-16.89,10.57a28.42,28.42,0,0,0-2.56,7.84,18.28,18.28,0,0,0,13.44,10.3c7.77,1.48,15.09-3.9,18.7-7.17C269.9,385.27,264.59,375.93,256.52,374.47Z"></path><path class="cls-16" d="M250.51,403.18a18.28,18.28,0,0,1-13.44-10.3c0,.11,0,.21-.06.32-2,11.93,3.56,22.9,12.37,24.49s17.54-6.8,19.51-18.73a27.12,27.12,0,0,0,.32-2.95C265.6,399.28,258.28,404.66,250.51,403.18Z"></path><path class="cls-17" d="M250.51,403.18a18.28,18.28,0,0,1-13.44-10.3c0,.11,0,.21-.06.32-2,11.93,3.56,22.9,12.37,24.49s17.54-6.8,19.51-18.73a27.12,27.12,0,0,0,.32-2.95C265.6,399.28,258.28,404.66,250.51,403.18Z"></path><path class="cls-16" d="M281,416.11c4.63-.33,12.6-6.93,16.67-10.56,0-.2,0-.38.05-.58.55-10.29-5.47-19-13.43-19.39s-14.86,7.58-15.4,17.87A24.1,24.1,0,0,0,269,408C271.3,410.91,276.21,416.46,281,416.11Z"></path><path class="cls-16" d="M281,416.11c-4.74.35-9.65-5.2-11.91-8.14,1.13,8.19,6.48,14.52,13.24,14.87,7.81.41,14.57-7.29,15.34-17.29C293.55,409.18,285.58,415.78,281,416.11Z"></path><path class="cls-17" d="M281,416.11c-4.74.35-9.65-5.2-11.91-8.14,1.13,8.19,6.48,14.52,13.24,14.87,7.81.41,14.57-7.29,15.34-17.29C293.55,409.18,285.58,415.78,281,416.11Z"></path></g><path class="cls-16" d="M291,244.94c8.65,3.72,16.79,8.12,23.31,13.57,12,13.4,28.2,30.42,40.83,42.63-1.44-14-5-35.79-13.77-43.84C332.34,249,306.62,246,291,244.94Z"></path><path class="cls-17" d="M291,244.94c8.65,3.72,16.79,8.12,23.31,13.57,12,13.4,28.2,30.42,40.83,42.63-1.44-14-5-35.79-13.77-43.84C332.34,249,306.62,246,291,244.94Z"></path><path class="cls-16" d="M433.82,259.49l-22.05-43.15c-3.58-7-11.4-10.2-18.46-7.54-6.6,2.49-15.53,5.77-25.86,9.3-22.31,7.63-27.56-18.83-69.73-21.62s-52.55-6-74.86-1.81c-12,2.25-23.75,9.59-32.3,19.2a59.83,59.83,0,0,0-7.19,9.92,47.58,47.58,0,0,0-4.58,10.76,38,38,0,0,0-1.33,7.38c-.13,1.81-.23,3.57-.27,5.27s0,3.33.07,4.88a28,28,0,0,0,1.06,6.36c1.77,5.69,5.87,9.17,14.39,8.84,4.49-.18,7.44-3.67,10.16-8.52.91-1.61,1.79-3.38,2.69-5.22,4.22-8.6,8.94-18.89,19.11-23.45a28.07,28.07,0,0,1,10.16-2.34c1-.05,2-.06,3,0s2.13.11,3.26.23c12.68,4.73,32.33,9.45,49.85,17,15.64,1.07,41.36,4.06,50.37,12.36,8.73,8.05,12.33,29.85,13.77,43.84,5.69,5.5,10.66,10,14.21,12.82,8.91,7,15,17.5,18.08,30.75,9.9-3.28,24-43.81,24.26-47.56a11.57,11.57,0,0,1,5.38-9.09l11-6.72C435.21,276.94,437.78,267.24,433.82,259.49Z"></path><rect class="cls-18" x="396.68" y="162.21" width="139.92" height="128.62" transform="translate(494.92 -291.42) rotate(67.23)"></rect><polygon class="cls-19" points="434.42 315.92 380.26 186.9 498.86 137.13 553.01 266.15 434.42 315.92"></polygon></g></g></svg>