<svg xmlns="http://www.w3.org/2000/svg" viewBox="0 0 497.82 497.82"><defs><style>.cls-1{fill:#b4daf8;}.cls-2{fill:#81c2f4;}.cls-3{fill:#fb5a57;}.cls-4{fill:#f98585;}.cls-5{fill:none;}.cls-6{fill:#ff9100;}.cls-7{fill:#ffee6e;}.cls-8{fill:#fcc05f;}.cls-9{fill:#ffd147;}.cls-10{fill:#eb9777;}.cls-11{fill:#e8ae9c;}</style></defs><g id="Capa_2" data-name="Capa 2"><g id="Capa_1-2" data-name="Capa 1"><path class="cls-1" d="M0,248.91C0,386.38,111.44,497.82,248.91,497.82V0C111.44,0,0,111.44,0,248.91Z"></path><path class="cls-2" d="M248.91,0V497.82c137.47,0,248.91-111.44,248.91-248.91S386.38,0,248.91,0Z"></path><path class="cls-3" d="M335.11,98.64c-31.56,0-65.54,20.63-86.18,47.33V313.16l.12.07v.21l-.12-.07V431l.53.27a501.1,501.1,0,0,0,46.46-28h0l1.47-1-.15.23c2.52-1.68,5.12-3.45,7.75-5.27l.31-.2h0c10.49-7.25,21.73-15.52,33.08-24.74h0c49-39.84,99.92-97.11,99.92-163.2C438.3,120.5,366.67,98.64,335.11,98.64Z"></path><path class="cls-4" d="M248.91,146c-20.64-26.71-54.63-47.35-86.2-47.35S59.52,120.5,59.52,209.12c0,62.29,45.22,116.75,91.47,156.16,13.51,11.52,27.09,21.73,39.67,30.49v0l2.92,2.11a.94.94,0,0,0,0,.16,525.81,525.81,0,0,0,55.3,33V146Z"></path><path class="cls-5" d="M272.28,325.86l.89.63Z"></path><path class="cls-5" d="M236.77,302.6c-2.13-3.19-4.86-14.56-4.86-14.56l-.45.52c.51,2,2.95,11.31,4.87,14.14,2.88,4.25,6.6,7.24,12.6,10.67v-.21C243.16,309.77,239.56,306.79,236.77,302.6Z"></path><path class="cls-5" d="M265.62,321.91a54,54,0,0,1,6.57,3.88,54.46,54.46,0,0,0-6.28-3.76c-7.24-3.62-12.71-6.36-17-8.87v.21C253.17,315.79,258.55,318.44,265.62,321.91Z"></path><path class="cls-6" d="M272.19,325.79l.09.07Z"></path><path class="cls-6" d="M223.41,302.6c0-4.19,6.32-12,8.05-14-.06-.23-.09-.39-.09-.39S222.94,298,223,302.81c.11,14.56,22.15,38.68,18.6,50.85a19,19,0,0,1-.83,2.28,19.51,19.51,0,0,0,.87-2.35C245.27,341.45,223.41,317.17,223.41,302.6Z"></path><polygon class="cls-7" points="416.31 12.08 426.26 40.56 450.01 59.16 421.53 69.12 402.93 92.86 392.97 64.39 369.23 45.78 397.7 35.83 416.31 12.08"></polygon><polygon class="cls-7" points="355.54 153.65 361.99 172.09 377.36 184.13 358.92 190.58 346.88 205.95 340.43 187.52 325.06 175.47 343.49 169.02 355.54 153.65"></polygon><polygon class="cls-7" points="307.18 26.32 312.41 41.29 324.9 51.08 309.92 56.31 300.14 68.8 294.9 53.83 282.42 44.04 297.39 38.81 307.18 26.32"></polygon><path class="cls-8" d="M248.93,190.44c-1.51-1.25-2.45-2-2.45-2s2,25.31-7.28,34c-41.28,38.85-82.56,68-88.63,120.19-.8,6.86-.41,15,.42,22.61,13.51,11.52,27.09,21.73,39.67,30.49v0l2.92,2.11a.94.94,0,0,0,0,.16,525.81,525.81,0,0,0,55.3,33V313.16h0Z"></path><path class="cls-6" d="M343.61,324.46c-2.43-34-46.14-51-46.14-51-1.21,8.5-7.28,15.78-18.21,15.78s-14.57-7.28-14.57-14.57,3.64-25.49,7.29-44.92c3-16-16.13-33.54-23.05-39.32V313.16l.12.07v.21l-.12-.07V431l.53.27a501.1,501.1,0,0,0,46.46-28h0l1.47-1-.15.23c2.52-1.68,5.12-3.45,7.75-5.27l.31-.2h0c10.49-7.25,21.73-15.52,33.08-24.74A139.87,139.87,0,0,0,343.61,324.46Z"></path><path class="cls-9" d="M308.41,373c-2.1-13.62-19.56-35.37-35.23-46.53-.3-.22-.59-.43-.89-.63l-.09-.07a54,54,0,0,0-6.57-3.88c-7.07-3.47-12.45-6.12-16.69-8.54V431l.53.27a503.23,503.23,0,0,0,48-29C303.52,393.07,309.69,381.35,308.41,373Z"></path><path class="cls-7" d="M236.34,302.7c-1.92-2.83-4.36-12.17-4.86-14.14-1.74,2.07-8,9.85-8,14,0,14.57,21.85,38.85,18.21,51a23.63,23.63,0,0,1-.87,2.35c-2.82,6.65-8.18,8.71-13.66,8.75-8.5.07-18.29-9.57-15.94-20.52,0,0-19.4,3.8-20.43,28.08a96.48,96.48,0,0,0,2.9,25.81,525.81,525.81,0,0,0,55.3,33V313.37C242.94,309.94,239.22,307,236.34,302.7Z"></path><path class="cls-10" d="M369.39,466.29a7.12,7.12,0,0,0-.92-4.78c-1.79-2.91-4.68-2.89-7.35-2.68A66.79,66.79,0,0,0,340.27,464c12.43-7.71,25.59-16.25,31.3-29.73.9-2.12,1.61-4.44.71-6.74A4,4,0,0,0,371,425.8c-2.13-1.62-4.43-.46-6.39.66l-35.45,20.21a86.22,86.22,0,0,0,27.57-27.08c1.76-2.75,3.41-6.2,1.33-9.11a6,6,0,0,0-4.09-2.33c-3.32-.48-6.32,1-9.18,2.48-8.3,4.24-16.76,8.61-23.84,14.57q-2.88,3-5.95,5.81A52.63,52.63,0,0,1,321,425.2a131.56,131.56,0,0,0,13.49-16.48c2.62-3.8,5-9.28,1.33-12.55a6.19,6.19,0,0,0-3.5-1.46c-3.15-.32-5.92,1.07-8.61,2.42-12.87,6.49-25.76,13-38,20.68l10.88-17.48c1.37-2.2,2.79-4.56,2.49-7.21a4.57,4.57,0,0,0-2.12-3.43c-1.74-1-3.29-.25-4.72.52q-10.58,5.67-20.78,12a41,41,0,0,0-4.12,2.81,29.69,29.69,0,0,1-10.61,5.49l-.83.22-6.75,2.69v84.4c.34,0-.35,0,0,0,29.12-.23,58.52-1.88,86.59-9.66,10.23-2.84,20.52-6.63,28.43-13.72C366.63,472.25,368.9,469.6,369.39,466.29Z"></path><path class="cls-11" d="M127.76,466.29a7.07,7.07,0,0,1,.93-4.78c1.78-2.91,4.67-2.89,7.35-2.68A66.8,66.8,0,0,1,156.88,464c-12.43-7.71-25.59-16.25-31.3-29.73-.9-2.12-1.61-4.44-.71-6.74a4,4,0,0,1,1.28-1.74c2.13-1.62,4.43-.46,6.39.66L168,446.67a86.15,86.15,0,0,1-27.58-27.08c-1.75-2.75-3.41-6.2-1.33-9.11a6,6,0,0,1,4.09-2.33c3.32-.48,6.32,1,9.18,2.48,8.3,4.24,16.76,8.61,23.84,14.57q2.88,3,6,5.81a52.63,52.63,0,0,0-6-5.81,130.61,130.61,0,0,1-13.48-16.48c-2.63-3.8-5-9.28-1.33-12.55a6.14,6.14,0,0,1,3.49-1.46c3.15-.32,5.92,1.07,8.61,2.42,12.87,6.49,25.76,13,38,20.68l-10.89-17.48c-1.37-2.2-2.79-4.56-2.49-7.21a4.57,4.57,0,0,1,2.12-3.43c1.75-1,3.29-.25,4.72.52q10.58,5.67,20.79,12a43.4,43.4,0,0,1,4.12,2.81,29.53,29.53,0,0,0,10.61,5.49l.82.22,7.8,2.69v84.4c-.35,0-.7,0-1,0-29.13-.23-58.53-1.88-86.6-9.66-10.23-2.84-20.52-6.63-28.43-13.72C130.53,472.25,128.25,469.6,127.76,466.29Z"></path></g></g></svg>